<svg id="レイヤー_1" data-name="レイヤー 1" xmlns="http://www.w3.org/2000/svg" viewBox="0 0 331 49"><defs><style>.cls-1{fill:#fff;}.cls-2{fill:#ff0001;}.cls-3{fill:#4d4d4d;}</style></defs><g id="グループ_8118" data-name="グループ 8118"><path id="パス_17176" data-name="パス 17176" d="M28,26.33a2,2,0,0,1-2,2H2.39a2,2,0,0,1-2-2V2a2,2,0,0,1,2-2H26a2,2,0,0,1,2,2h0Z"/><path id="パス_17177" data-name="パス 17177" class="cls-1" d="M25.69,9.14a.54.54,0,0,1-.54.54H19a.54.54,0,0,1-.54-.54h0V3A.54.54,0,0,1,19,2.43h6.17a.54.54,0,0,1,.54.54Z"/><path id="パス_17178" data-name="パス 17178" class="cls-1" d="M17.69,9.14a.54.54,0,0,1-.54.54H11a.54.54,0,0,1-.54-.54V3A.54.54,0,0,1,11,2.43h6.17a.54.54,0,0,1,.54.54Z"/><path id="パス_17179" data-name="パス 17179" class="cls-1" d="M9.69,9.14a.54.54,0,0,1-.54.54H3a.54.54,0,0,1-.54-.54V3A.54.54,0,0,1,3,2.43H9.15A.54.54,0,0,1,9.69,3Z"/><path id="パス_17180" data-name="パス 17180" class="cls-2" d="M17.69,17.14a.54.54,0,0,1-.54.54H11a.54.54,0,0,1-.54-.54V11a.54.54,0,0,1,.54-.54h6.17a.54.54,0,0,1,.54.54Z"/><path id="パス_17181" data-name="パス 17181" class="cls-1" d="M17.69,25.14a.54.54,0,0,1-.54.54H11a.54.54,0,0,1-.54-.54V19a.54.54,0,0,1,.54-.54h6.17a.54.54,0,0,1,.54.53h0Z"/><path id="パス_17182" data-name="パス 17182" class="cls-3" d="M25.88,17.12a.55.55,0,0,1-.54.55H19.06a.55.55,0,0,1-.55-.55V10.84a.55.55,0,0,1,.55-.54h6.28a.54.54,0,0,1,.54.54Z"/><path id="パス_17183" data-name="パス 17183" class="cls-3" d="M9.62,17.12a.55.55,0,0,1-.55.55H2.8a.55.55,0,0,1-.55-.55V10.84a.55.55,0,0,1,.55-.54H9.07a.54.54,0,0,1,.55.54Z"/><path id="パス_17184" data-name="パス 17184" class="cls-3" d="M25.88,25.25a.55.55,0,0,1-.54.55H19.06a.55.55,0,0,1-.55-.55V19a.55.55,0,0,1,.55-.55h6.28a.55.55,0,0,1,.54.55Z"/><path id="パス_17185" data-name="パス 17185" class="cls-3" d="M9.62,25.25a.54.54,0,0,1-.55.55H2.8a.55.55,0,0,1-.55-.55V19a.55.55,0,0,1,.55-.55H9.07a.54.54,0,0,1,.55.55h0Z"/><path id="パス_17186" data-name="パス 17186" d="M5.08,29.91v.84H3.31v4.7H1.79v-4.7H0v-.84Z"/><path id="パス_17187" data-name="パス 17187" d="M9.55,29.91v.86H7.05v1.4H9.38V33H7.05v1.58H9.59v.89H5.53V29.91Z"/><path id="パス_17188" data-name="パス 17188" d="M14.43,30.9a4,4,0,0,0-1.18-.22,1.75,1.75,0,0,0-1.82,1.68,1.63,1.63,0,0,0,0,.31c0,1.53.91,2,1.75,2a3,3,0,0,0,1.24-.31l.32.79a4.57,4.57,0,0,1-1.86.36A2.8,2.8,0,0,1,9.82,33c0-.1,0-.21,0-.32,0-1.64,1.2-2.87,3.22-2.87a5.38,5.38,0,0,1,1.69.27Z"/><path id="パス_17189" data-name="パス 17189" d="M16.67,29.91v2.25H19V29.91h1.52v5.55H19V33H16.67v2.46H15.15V29.91Z"/><path id="パス_17190" data-name="パス 17190" d="M27.68,34.43a3.43,3.43,0,0,1-1.57.41,2.07,2.07,0,0,1-2.24-1.9,1.48,1.48,0,0,1,0-.21A2.13,2.13,0,0,1,26,30.6h.12a3.31,3.31,0,0,1,1.6.41v-.81a4.62,4.62,0,0,0-1.59-.34A2.91,2.91,0,0,0,23,32.61v.2a2.84,2.84,0,0,0,2.9,2.77H26a4,4,0,0,0,1.64-.32Z"/><path id="パス_17191" data-name="パス 17191" d="M22.61,35.4a.07.07,0,0,1-.07.08h-.87a.07.07,0,0,1-.07-.08v-.86a.07.07,0,0,1,.07-.08h.87a.07.07,0,0,1,.07.07h0Z"/><path id="パス_17192" data-name="パス 17192" d="M29.66,35.4a.07.07,0,0,1-.08.08h-.86s-.07,0-.08-.08v-.86a.08.08,0,0,1,.08-.08h.86a.07.07,0,0,1,.08.07h0Z"/><path id="パス_17193" data-name="パス 17193" d="M5.52,38.05h.7v1.46c.22-.25.9-1,1.31-1.46h.85L7.06,39.41l1.37,1.92H7.58l-1-1.45-.35.32v1.13h-.7Z"/><path id="パス_17194" data-name="パス 17194" d="M10.21,41.33V40.17a.36.36,0,0,0,0-.1l-1.14-2h.8c.25.5.58,1.15.75,1.51.14-.35.5-1,.75-1.51h.74l-1.15,2a.3.3,0,0,0,0,.1v1.17Z"/><path id="パス_17195" data-name="パス 17195" d="M15.94,39.68a1.58,1.58,0,0,1-1.43,1.7h-.19a1.54,1.54,0,0,1-1.58-1.48,1.48,1.48,0,0,1,0-.21A1.57,1.57,0,0,1,14.19,38h.18a1.51,1.51,0,0,1,1.57,1.47A1.34,1.34,0,0,1,15.94,39.68Zm-2.45,0c0,.64.28,1.13.86,1.13s.85-.53.85-1.12-.25-1.1-.86-1.1-.85.45-.85,1.09Z"/><path id="パス_17196" data-name="パス 17196" d="M17.67,38.63h-1v-.58h2.7v.58h-1v2.7h-.71Z"/><path id="パス_17197" data-name="パス 17197" d="M23.23,39.68a1.58,1.58,0,0,1-1.43,1.7h-.19A1.52,1.52,0,0,1,20,39.9a1.47,1.47,0,0,1,0-.21A1.57,1.57,0,0,1,21.48,38h.18a1.51,1.51,0,0,1,1.57,1.47A1.34,1.34,0,0,1,23.23,39.68Zm-2.45,0c0,.64.28,1.13.86,1.13s.85-.53.85-1.12-.25-1.1-.86-1.1-.85.45-.85,1.09Z"/><path id="パス_17672" data-name="パス 17672" d="M239.71,19.54a10.84,10.84,0,0,0-1.48-2.5l.86-.56a14.13,14.13,0,0,1,1.82,2.34Zm1.18-3.74a11.4,11.4,0,0,1,1.75,2.45l-1.2.3A11,11,0,0,0,240,16.33Z"/><g id="グループ_8108" data-name="グループ 8108"><path id="パス_17656" data-name="パス 17656" d="M39,32.46A9.21,9.21,0,0,0,42.87,28l2.33,1.14c.08,0,.16.07.16.16s-.06.13-.32.24a13.72,13.72,0,0,1-5.32,3.7Zm7.3-14.68c0-.26,0-.67,0-.94l2.33.05c.07,0,.21,0,.21.15a.55.55,0,0,1-.14.32v1.79h7v1H39.35v-1H46.3ZM48.66,32c0,1.57-.5,1.91-2.06,1.91H43.76l-.31-1.21a7.88,7.88,0,0,0,1.82.22c1,0,1-.33,1-1V27.39H41.15V21.91H53.83v5.48H48.66Zm-5.11-5.6h7.88V22.9H43.55Zm10,6.93a19.17,19.17,0,0,0-3.73-4.26l.93-.74a19.51,19.51,0,0,1,4.92,3.41Z"/><path id="パス_17657" data-name="パス 17657" d="M67,18.84V17.9h6.54v1L71.29,24.6a6.34,6.34,0,0,1,2.36,5c0,2.47-1.5,2.56-2.31,2.56H69.87l-.49-1.27a2.43,2.43,0,0,0,.84.18c.66,0,1-.37,1-1.5a7.18,7.18,0,0,0-1.68-4.85L71,18.89H69.27v15H67V19.54a16.19,16.19,0,0,1-2,3.16h1.6v1H64.12a15.78,15.78,0,0,1-2.39,2.08h4.36v7.4H61.37v.75H59.09V27.41c-.51.26-.93.45-1.42.69L57,27.2a15.32,15.32,0,0,0,5-3.48H57.4v-1h2.89V20.16H58.38v-1h1.91V18c0-.65,0-.83,0-1l2.27.06c.06,0,.14.18.14.27s-.12.34-.12.4v1.44h1.57v1H62.57v2.55h.28a14,14,0,0,0,2.43-4.84Zm-5.65,10h2.42v-2H61.36Zm0,3.37h2.42V29.81H61.36Z"/><path id="パス_17658" data-name="パス 17658" d="M77.83,32.35c4.25-.85,5-3.72,4.88-8.27H79.17c-.3,0-1.5,0-2.71.06V22.85c1.21,0,1.66,0,2.71,0h9.56c1.48,0,1.89,0,2.57,0v1.29c-1.06-.06-1.93-.06-2.54-.06h-3.3a15.3,15.3,0,0,1-.61,5.08c-1.44,3.28-4.64,4-6.52,4.35Zm3.83-12.8c-1.33,0-2.33,0-3,.06V18.32c.75,0,1.73.05,3,.05h4.18c1.21,0,2.23,0,2.82-.05v1.29c-.86,0-1.66-.06-2.75-.06Zm8.37.56a15.17,15.17,0,0,0-1.25-2.64l.88-.42a10.71,10.71,0,0,1,1.59,2.5Zm1.77-.76A9.35,9.35,0,0,0,90.62,17l.89-.46a10.19,10.19,0,0,1,1.54,2.17Z"/><path id="パス_17659" data-name="パス 17659" d="M96.46,23.17h-.8c-.2,0-1.68,0-2.3.06V22c.34,0,2.2,0,2.29,0h.82V19.64c0-.35,0-1.31,0-1.91l2.37.16c.38,0,.42,0,.42.13s-.11.48-.11.55V22H103V19.29c0-.11,0-1,0-1.55l2.38.15c.23,0,.41,0,.41.15s-.09.59-.09.7V22h.66c.41,0,1.48,0,2.25,0v1.27c-.68,0-1.45-.05-2.13-.05h-.78a19.66,19.66,0,0,1-.52,5.72c-1.36,4-4.73,4.6-7.06,5l-.57-1.15c1.93-.31,4.4-.77,5.22-4.4a27.18,27.18,0,0,0,.25-5.18H99.1v4.9H96.4c.07-.78.07-3.59.07-3.65Zm11.2-2.73A10.56,10.56,0,0,0,106.2,18l.86-.55a15,15,0,0,1,1.8,2.32Zm1.18-3.72a12.37,12.37,0,0,1,1.74,2l-1.21.73A10.48,10.48,0,0,0,108,17.25Z"/><path id="パス_17660" data-name="パス 17660" d="M119.85,33.68h-2.57c0-.26,0-2,0-2.34v-6.9a25.11,25.11,0,0,1-7,2.53l-.37-.9a19.86,19.86,0,0,0,11.77-8.84l2.17,1.34c.06,0,.34.22.34.32s-.44.38-.53.48A32.84,32.84,0,0,1,119.82,23v8.34s0,1.12,0,2.36"/><path id="パス_17661" data-name="パス 17661" d="M127.71,30.6c6-1.57,10.54-5.82,13.24-11.83l.87.49c-.41,1.3-1.75,5.3-3.63,7.62a18.34,18.34,0,0,1-5.72,4.75l-3.21,1.54Zm4.73-7.32a11.92,11.92,0,0,0-5-3.92l.51-1A15,15,0,0,1,134.25,21Z"/><path id="パス_17662" data-name="パス 17662" d="M153.23,27.25a6.67,6.67,0,0,0,.31-1.6h2.64a8.57,8.57,0,0,1-1.37,3.45l2.29,2.77h-3.58l-.72-1a5.41,5.41,0,0,1-3.66,1.22c-.84,0-4.5.25-4.5-3.39,0-2.41,1.6-3.67,3.12-4.52a4.58,4.58,0,0,1-1.2-2.69,3.21,3.21,0,0,1,3-3.43,4.68,4.68,0,0,1,.53,0c1.57,0,3.23.77,3.23,2.52a2.91,2.91,0,0,1-.75,2.05,5.43,5.43,0,0,1-2,1.34Zm-4.66-2a3.74,3.74,0,0,0-1.39,3.13c0,1,.33,2.66,2.16,2.66a3.57,3.57,0,0,0,2.49-1.36Zm2.55-4.55c0-1.29-.87-1.5-1.15-1.5a1.2,1.2,0,0,0-1.13,1.27v.08a3,3,0,0,0,.33,1.3,6.5,6.5,0,0,0,.7,1.16,3.15,3.15,0,0,0,1.25-2.31"/><path id="パス_17663" data-name="パス 17663" d="M161.73,31.85c4.28-.83,5.06-3.76,4.91-8.33h-3.41c-1.12,0-2,0-2.88.05v-1.3c1,.06,1.91.08,2.88.08h9.32c.5,0,1.87,0,2.88-.08v1.3c-.65,0-1.66-.05-2.84-.05h-3.18c0,3.59-.47,4.8-.61,5.11-1.46,3.31-4.67,4-6.54,4.37Zm4-12.74c-1,0-2.33,0-3.05.07v-1.3c1.67.06,2.89.06,3.05.06h4.39c.32,0,1.54,0,3-.06v1.3c-.76,0-2-.07-2.93-.07Z"/><path id="パス_17664" data-name="パス 17664" d="M192.87,31.8a10.26,10.26,0,0,0,6.84-4.95,23.29,23.29,0,0,0,2.51-9.17l2.78.61c.07,0,.3.05.3.17s-.16.42-.17.51a29.71,29.71,0,0,1-2.28,7.5c-2.59,5-6.86,5.85-9.41,6.42Z"/><path id="パス_17665" data-name="パス 17665" d="M212.38,31.21c0,.11,0,.65,0,.78h-2.68c0-.8,0-2.41,0-3.3v-8c0-.65,0-1.3,0-2.37,1.4,0,2.19.07,3.38.07h7c1.76,0,2.21,0,2.86-.06,0,1.6,0,2.43,0,2.82v7.57c0,1.15,0,2.52,0,3.28h-2.7c0-.24,0-.55,0-.8Zm0-1.15h8V19.56h-8Z"/><path id="パス_17666" data-name="パス 17666" d="M243.57,23.74l3.65,0h5.61c1.16,0,1.78,0,3,0v1.87c-.88,0-2,0-2.93,0h-5.61c-2.56,0-2.88,0-3.7,0Z"/><path id="パス_17667" data-name="パス 17667" d="M275.91,17.64v1h-7V19.9H274v6.3H261.48V19.9h5.08V18.64h-6.94v-1h6.94v-.29a6.08,6.08,0,0,0-.1-1.2l2.47,0s.1.11.1.16-.09.36-.1.4v.9Zm0,10v1h-3.65v2.22c0,1.67-.42,1.92-2.06,1.92h-2.85l-.44-1.15a7.4,7.4,0,0,0,2,.2c.9,0,1-.07,1-.91V28.67h-6.56a22.29,22.29,0,0,1,3,2.35L264,32.57a11.83,11.83,0,0,0-2-3.45l.63-.45h-3.08v-1h10.21a7.77,7.77,0,0,0-.1-1.27l2.35,0a.24.24,0,0,1,.26.2c0,.07-.12.28-.12.35v.68Zm-9.31-6.76H264v1.63h2.61ZM264,25.19h2.61V23.54H264Zm7.67-4.28h-2.7v1.63h2.7Zm-2.7,4.28h2.7V23.54h-2.7Z"/><path id="パス_17668" data-name="パス 17668" d="M285.38,16.71v7h-4.65v9.12h-2.3V16.71Zm-2.23,1h-2.42v2h2.42Zm-2.42,5h2.42V20.68h-2.42Zm12.58-6V30.62c0,2-.8,2.15-2.33,2.15h-2l-.4-1.17a15.28,15.28,0,0,0,1.79.18c.58,0,.66-.2.66-1v-7h-4.61v-7Zm-2.28,1h-2.47v2H291Zm-2.47,5H291v-2h-2.47Z"/><path id="パス_17669" data-name="パス 17669" d="M312.25,27.06v1h-6.91v3c0,1.49-.6,1.9-2,1.9h-3.05l-.3-1.15a14,14,0,0,0,1.93.16c.8,0,1-.11,1-.93V28.06h-6.82v-1h6.82v-2l1.76.15a11.69,11.69,0,0,0,1.42-1.64h-7v-1h10.15v1.25a31.2,31.2,0,0,1-3.88,2.44v.74ZM303,19.81a15.57,15.57,0,0,0-1.2-3.24l.9-.56a16.86,16.86,0,0,1,2.8,2.8l-1.76,1h4l-1-.5a10.57,10.57,0,0,0,1.24-3.26l2.7,1.09a.11.11,0,0,1,.05.09.5.5,0,0,1-.37.38,23.49,23.49,0,0,1-2.48,2.2h4v3.46h-2.38V20.8h-10.7v2.51h-2.35v-3.5h2.52a19.48,19.48,0,0,0-1.53-3l.84-.59a11.82,11.82,0,0,1,3.16,2.56l-1.44,1Z"/><path id="パス_17670" data-name="パス 17670" d="M320.16,27.36a13.5,13.5,0,0,1-1.44-2V33h-2.3V26.38a12.1,12.1,0,0,1-2.07,2.94l-.56-.92A15.79,15.79,0,0,0,316.33,21h-2.18v-1h2.27v-2.3a14.27,14.27,0,0,0-.06-1.62l2.32.05a.28.28,0,0,1,.1.24.63.63,0,0,1-.07.3V20h1.52v1h-1.5a13.58,13.58,0,0,0,2.21,5.54Zm3.59-4.3a12,12,0,0,0,1.34,4.25,10.65,10.65,0,0,0,1-4.07l2.42.7c.09,0,.12.09.12.2s-.12.23-.22.32a13.68,13.68,0,0,1-2.16,4.6,13,13,0,0,0,4.42,3L330,33a14.24,14.24,0,0,1-4.86-2.69A12.81,12.81,0,0,1,319.83,33l-.68-.83a11.08,11.08,0,0,0,4.77-3.1,11.31,11.31,0,0,1-2.44-5Zm-3.94.79a9.46,9.46,0,0,0,2.42-4.07l2.23,1s.05,0,.05.07c0,.23-.1.3-.3.41a14.31,14.31,0,0,1-3.62,3.32Zm10.53-5.09v1h-9.87v-1h3.4V17.43c0-.16,0-.63-.06-1.25l2.39,0c.07,0,.12.16.12.24a.55.55,0,0,1-.07.28v2Zm-1.25,5.93a23.09,23.09,0,0,0-3-4l.7-.8a20.48,20.48,0,0,1,3.85,3Z"/><path id="パス_17671" data-name="パス 17671" d="M227.43,20.8a15.94,15.94,0,0,1,4.75,2.34l-1.83,2.1a11.65,11.65,0,0,0-3.82-3.47ZM228.7,30c8.16-1.42,11.07-7.62,12.17-10.19l.9.38c-2.23,7.74-6.86,10.5-11.13,12.19a4.78,4.78,0,0,1-.42.26c-.07,0-.1-.1-.23-.34Zm1.08-12.35a14.44,14.44,0,0,1,4.57,1.84l-1.49,2.3c-.73-1.23-1.66-1.94-3.91-3.18Z"/><path id="パス_17673" data-name="パス 17673" d="M191.07,19.41c-.43,0-1,.08-2.84.08h-3.72a15.77,15.77,0,0,0,.5-1.56,1.75,1.75,0,0,0,.2-.35s-.07-.1-.24-.15l-2.76-.17a15.19,15.19,0,0,1-.38,1.65,8.72,8.72,0,0,1-4.21,5.8l.7,1a12.6,12.6,0,0,0,5.56-5.08h5.25c-1.14,9.46-7.84,10.8-10.68,11.15l.36,1.17c3.25-.32,7.91-1,10.78-5.69a20.91,20.91,0,0,0,2.52-6.87Z"/></g><g id="グループ_8107" data-name="グループ 8107"><path id="パス_17699" data-name="パス 17699" d="M39.83,9A5.77,5.77,0,0,0,39,9V8.28a5.69,5.69,0,0,0,.83.05h1.86V8.28c0-.13,0-.25,0-.38H42a3.62,3.62,0,0,0,.81-.55H40.89q-.35,0-.69,0V6.69a5.32,5.32,0,0,0,.69,0h2.27a3.08,3.08,0,0,0,.52,0l.37.42-.24.2a9.4,9.4,0,0,1-1.37,1h1.78a4.74,4.74,0,0,0,.84-.05V9a7.94,7.94,0,0,0-.85,0H42.44v1.2a.72.72,0,0,1-.09.43c-.12.17-.35.23-1,.23l-.67,0a2.68,2.68,0,0,0-.22-.73,4.8,4.8,0,0,0,.85.07c.3,0,.34,0,.34-.15V9Zm.35-3.38a4.28,4.28,0,0,0-.51-.77l.69-.2a5.24,5.24,0,0,1,.62,1h.73a4.37,4.37,0,0,0-.42-.87l.71-.2a6.23,6.23,0,0,1,.47,1.06h.58a4.4,4.4,0,0,0,.56-1l.74.2a6.25,6.25,0,0,1-.51.82h.31a7.85,7.85,0,0,0,.84,0,3.57,3.57,0,0,0,0,.56V6.8a4.53,4.53,0,0,0,0,.52h-.74V6.26H39.79V7.32h-.74a3.08,3.08,0,0,0,0-.53V6.16a5.12,5.12,0,0,0,0-.56,7.3,7.3,0,0,0,.81,0Z"/><path id="パス_17700" data-name="パス 17700" d="M50,6.39a5.43,5.43,0,0,1-1.27,1.77,2.36,2.36,0,0,0-.33-.45,3.22,3.22,0,0,0-.23.5,6.35,6.35,0,0,1-.44-.81c0,.13,0,.13,0,.5V10a7.87,7.87,0,0,0,0,.84h-.77a5.91,5.91,0,0,0,0-.84V8.26l0-.56a5.7,5.7,0,0,1-.73,1.61A4.2,4.2,0,0,0,46,8.54a6.08,6.08,0,0,0,1-2.11h-.27a4.71,4.71,0,0,0-.53,0V5.75a4.71,4.71,0,0,0,.53,0h.34V5.21a4.34,4.34,0,0,0,0-.72h.76q0,.36,0,.72v.56h.27a1.85,1.85,0,0,0,.41,0v.7a2.61,2.61,0,0,0-.4,0H47.8a3.15,3.15,0,0,0,.64,1,3.83,3.83,0,0,0,.94-1.35Zm1.5,1.35a6.74,6.74,0,0,1-.76,1.36,4.17,4.17,0,0,0,1.75,1,2.94,2.94,0,0,0-.38.75,5,5,0,0,1-1.83-1.17,5,5,0,0,1-1.78,1.18,2.39,2.39,0,0,0-.42-.66,4.07,4.07,0,0,0,1.75-1.07,5.71,5.71,0,0,1-.71-1.31l.63-.32a4,4,0,0,0,.54,1.07,4.5,4.5,0,0,0,.54-1.1ZM50,5.07a4.36,4.36,0,0,0,0-.51h.81a2.1,2.1,0,0,0,0,.5v.29h.92a4.78,4.78,0,0,0,.76,0v.75c-.23,0-.46,0-.76,0H49.38a6.45,6.45,0,0,0-.76,0V5.31a4.78,4.78,0,0,0,.76,0H50Zm1.28,1a4.08,4.08,0,0,0,1.21,1.37,2.59,2.59,0,0,0-.42.65,4.87,4.87,0,0,1-1.38-1.68Z"/><path id="パス_17701" data-name="パス 17701" d="M53.94,6.28a8,8,0,0,1,1.23.83l-.43.62a6.74,6.74,0,0,0-1.22-.9Zm1.22,2.34a14.14,14.14,0,0,1-.66,1.55l-.21.47c0,.06,0,.12-.08.17l-.66-.57a8.11,8.11,0,0,0,1-2.05Zm-.88-4a6.71,6.71,0,0,1,1.18.88L55,6.08a6.61,6.61,0,0,0-1.17-.94Zm.87,5.26h.23l.51,0A10.7,10.7,0,0,0,56.74,8H56a6,6,0,0,0-.74,0V7.25a6.23,6.23,0,0,0,.74,0h1.07v-1h-.82c-.27,0-.5,0-.72,0V5.55a5.85,5.85,0,0,0,.73,0h.81v-.3a3.48,3.48,0,0,0,0-.72h.83a3.48,3.48,0,0,0,0,.72v.3h1.09a5.48,5.48,0,0,0,.7,0V6.3a5.32,5.32,0,0,0-.69,0h-1.1v1h1.31a5.79,5.79,0,0,0,.72,0V8a5.65,5.65,0,0,0-.71,0H57.53c0,.13,0,.13-.13.38-.18.45-.38.9-.6,1.33l-.07.13a15.88,15.88,0,0,0,1.82-.23,8,8,0,0,0-.67-1l.61-.31a14.62,14.62,0,0,1,1.38,2.1l-.67.4c-.16-.32-.2-.42-.31-.63a23.12,23.12,0,0,1-2.48.35c-.74.08-.89.1-1.1.14Z"/><path id="パス_17702" data-name="パス 17702" d="M64.51,4.6a5.49,5.49,0,0,0-.05.7A5,5,0,0,0,65.13,8a5.59,5.59,0,0,0,2.14,2,2.67,2.67,0,0,0-.53.76A6.64,6.64,0,0,1,65,9.18a5.25,5.25,0,0,1-.91-1.87,4.84,4.84,0,0,1-.54,1.38A4.6,4.6,0,0,1,62.51,10a5.41,5.41,0,0,1-1.06.79,2,2,0,0,0-.53-.7A4.49,4.49,0,0,0,62.41,9a5.29,5.29,0,0,0,1.25-3.77,5.49,5.49,0,0,0,0-.58Z"/><path id="パス_17703" data-name="パス 17703" d="M68.51,6.15a5.13,5.13,0,0,1,1.08.76l-.43.59a4.27,4.27,0,0,0-1.08-.8Zm1.18,2.39a11.31,11.31,0,0,1-1,2.15l-.61-.58a1.66,1.66,0,0,0,.25-.34,7,7,0,0,0,.77-1.69Zm4.2.07a8.79,8.79,0,0,1,.61,1.88l-.69.19c0-.23-.06-.31-.1-.47-.31.06-.81.13-1.48.2l-.18,0,0,.16-.66.13c0-.2,0-.3-.06-.43-.26.06-.74.13-1.38.21l-.17,0-.18,0-.12,0-.13-.77h.37c.17-.24.36-.52.69-1.07a6.89,6.89,0,0,0-1-1.31l.45-.56c.1.11.12.15.2.24a3.44,3.44,0,0,0,.48-1.05h-.17c-.23,0-.46,0-.68,0V5.42l-.33.45a4.76,4.76,0,0,0-1.1-.9l.45-.51a4.77,4.77,0,0,1,1.08.81l0,.08a4.86,4.86,0,0,0,.66,0H71a5.17,5.17,0,0,0-.45-.79l.7-.18a5.55,5.55,0,0,1,.5,1h.62a3.52,3.52,0,0,0,.46-1l.76.22a7.31,7.31,0,0,1-.46.76h.65a3.77,3.77,0,0,0,.67,0v.75a4.87,4.87,0,0,0-.66,0h-.94l.53.21a9,9,0,0,1-.72,1.38,4.13,4.13,0,0,1,.32.49A12.63,12.63,0,0,0,73.51,7l.62.29a14.66,14.66,0,0,1-.87,1.55ZM71.27,6.28a7.44,7.44,0,0,1-.74,1.36l.3.45A6.53,6.53,0,0,0,71.35,7l.45.26L72,6.92l.15.18a4.69,4.69,0,0,0,.48-1H70.76Zm-.74,3.48a4.69,4.69,0,0,0,.71-.08,5.54,5.54,0,0,0-.19-.7c-.26.42-.37.58-.52.79m1.11-1a6.6,6.6,0,0,1,.28,1c.26-.37.35-.51.64-1a9.46,9.46,0,0,0-.76-1.11c-.22.43-.45.84-.71,1.25Zm1,1c.42,0,.68-.06.93-.1a5.64,5.64,0,0,0-.31-.81c-.34.52-.34.52-.62.91"/><path id="パス_17704" data-name="パス 17704" d="M80.86,9.22l-.2.18a4.82,4.82,0,0,1-.78.56,10,10,0,0,0,2,.19,2.46,2.46,0,0,0-.26.65,9.28,9.28,0,0,1-2.5-.47,9.45,9.45,0,0,1-2.47.46,2.85,2.85,0,0,0-.25-.63,10.78,10.78,0,0,0,2-.21,3.59,3.59,0,0,1-.54-.4,6,6,0,0,1-.88.44,2.16,2.16,0,0,0-.39-.5A3.44,3.44,0,0,0,78,8.62a.29.29,0,0,1-.22-.32V7.56H76.63v.2a10.49,10.49,0,0,1-.29,2,5.73,5.73,0,0,1-.4,1,2.37,2.37,0,0,0-.56-.62c.46-.81.57-1.66.57-4.4,0-.09,0-.21,0-.37a5.62,5.62,0,0,0,0-.58,7.56,7.56,0,0,0,.83,0h1.68a1.67,1.67,0,0,0,0-.39h.81a1.24,1.24,0,0,0,0,.39H81a4.85,4.85,0,0,0,.76,0v.65a4,4,0,0,0-.6,0H79.88v.26h1l.58,0a2.17,2.17,0,0,0,0,.36v.51a2.41,2.41,0,0,0,0,.38,4.71,4.71,0,0,0-.57,0H76.64v.23h4.2a5.62,5.62,0,0,0,.58,0l.35.29a1.49,1.49,0,0,0-.18.3,3.74,3.74,0,0,1-.32.49,2.51,2.51,0,0,0-.57-.28,1.85,1.85,0,0,0,.19-.27h-1.8a4.11,4.11,0,0,1,.56.27l-.37.33a3.59,3.59,0,0,0-.72-.4l.29-.2h-.42v.51c0,.08,0,.11.06.12a4.82,4.82,0,0,0,.65,0c.39,0,.54,0,.59-.08s.06-.13.08-.41a1.58,1.58,0,0,0,.53.18l.23-.18a6.26,6.26,0,0,1,.93.85L81,9a6.77,6.77,0,0,0-.63-.69c-.11.34-.28.4-1.14.4h-.52l-.19.21H79.9a2.27,2.27,0,0,0,.52,0Zm-4.23-.65a2,2,0,0,0,.54-.88l.53.24A3.66,3.66,0,0,1,77.1,9Zm1-3.22h-1V5.6h1Zm0,.74h-1v.24h1Zm1.57-.74h-.91V5.6h.91Zm0,.74h-.91v.24h.91Zm-.77,3.29a2.82,2.82,0,0,0,.64.34,2.64,2.64,0,0,0,.67-.34Zm2.34-3.29h-.91v.24h.91Z"/><path id="パス_17705" data-name="パス 17705" d="M88.81,10.27h-.88V10H83.79v-.8h4.14V6.08H83.87v-.8h4.94Z"/><path id="パス_17706" data-name="パス 17706" d="M90.71,9a18.54,18.54,0,0,1,4.91.81l-.24.85a16.07,16.07,0,0,0-4.91-.84Zm.63-2a18,18,0,0,1,3.86.54L95,8.3a15.58,15.58,0,0,0-3.84-.58Zm0-2a26.56,26.56,0,0,1,4.36.48l-.22.86a20.65,20.65,0,0,0-4.36-.55Z"/><path id="パス_17707" data-name="パス 17707" d="M102.09,9.61v.68H97.4V9.61h2.69a17.26,17.26,0,0,0,.32-2.14H97.86V6.8h3.38a20.59,20.59,0,0,1-.37,2.81Z"/><path id="パス_17708" data-name="パス 17708" d="M109.32,9.7h-5.9V8.88h5.9Zm-5.27-3.92h4.59v.81h-4.59Z"/><path id="パス_17709" data-name="パス 17709" d="M112.41,6.63a5.19,5.19,0,0,1-1.22,1.5,4.49,4.49,0,0,0-.65-.58,4.58,4.58,0,0,0,1.66-2.92l.86.17a6.3,6.3,0,0,1-.3,1h3.82v.78H115a4.14,4.14,0,0,1-.55,2.46,3.89,3.89,0,0,1-2.32,1.58,4.83,4.83,0,0,0-.54-.72,2.91,2.91,0,0,0,2.54-3.24.19.19,0,0,0,0-.08Z"/><rect id="長方形_13944" data-name="長方形 13944" x="117.35" y="7.46" width="4.84" height="0.82"/><rect id="長方形_13945" data-name="長方形 13945" x="150.7" y="7.4" width="4.84" height="0.82"/><path id="パス_17710" data-name="パス 17710" d="M124.21,6.5a11.48,11.48,0,0,1,2.07.79l-.35.77a10.3,10.3,0,0,0-2.09-.85Zm-.31,3.15a6.07,6.07,0,0,0,3-.88,4.62,4.62,0,0,0,1.89-2.83,8.17,8.17,0,0,0,.72.6,5.43,5.43,0,0,1-2.15,3,6.59,6.59,0,0,1-3.26,1Zm.84-4.78a10.6,10.6,0,0,1,2.05.79l-.37.76a10,10,0,0,0-2-.83Z"/><path id="パス_17711" data-name="パス 17711" d="M134.41,6.84h-3.22V6.19h4v4.36h-.75v-.31h-3.3V9.59h3.3V8.51h-3V7.87h3Z"/><path id="パス_17712" data-name="パス 17712" d="M137.67,5a10.9,10.9,0,0,1,2,1.34l-.57.73a9.44,9.44,0,0,0-2-1.41Zm-.35,4.55a6.25,6.25,0,0,0,3.09-1.14,5,5,0,0,0,1.73-2.79,7,7,0,0,0,.71.63,5.68,5.68,0,0,1-1.92,2.86,7.22,7.22,0,0,1-3.3,1.29Z"/><path id="パス_17713" data-name="パス 17713" d="M150.14,5.09a4.92,4.92,0,0,1-2,2.94,3.58,3.58,0,0,0-.63-.6A3.63,3.63,0,0,0,149,5.87h-4.65V5.09Zm-2.77,1.36a4.92,4.92,0,0,1-.51,2.77,3.61,3.61,0,0,1-1.94,1.47,4.58,4.58,0,0,0-.57-.67,3.13,3.13,0,0,0,1.79-1.25,3.77,3.77,0,0,0,.34-1.9V6.45Z"/><path id="パス_17714" data-name="パス 17714" d="M158.39,10.49h-.88V4.57h.88V6.39a12.38,12.38,0,0,1,3.47,1.47l-.45.8a10.45,10.45,0,0,0-3-1.42Z"/></g></g></svg>